
        <svg xmlns="http://www.w3.org/2000/svg" xmlns:xlink="http://www.w3.org/1999/xlink" version="1.1" width="2951.0163756030074" 
        height="3182.750905181412" viewBox="0 0 2951.0163756030074 3182.750905181412">
			
			<g transform="scale(9.137545259070585) translate(10, 10)">
				<defs id="SvgjsDefs1021"></defs><g id="SvgjsG1022" featureKey="7KWit6-0" transform="matrix(2.065559376853298,0,0,2.065559376853298,19.0748559479265,2.8874479058188847)" fill="#132a3a"><title xmlns="http://www.w3.org/2000/svg">student</title><path xmlns="http://www.w3.org/2000/svg" d="M69.84,35.67a2.79,2.79,0,1,1,2.79-2.79A2.79,2.79,0,0,1,69.84,35.67Zm0-3.58a.79.79,0,1,0,.79.79A.79.79,0,0,0,69.84,32.09Z"></path><path xmlns="http://www.w3.org/2000/svg" d="M57.31,35.67a2.79,2.79,0,1,1,2.79-2.79A2.79,2.79,0,0,1,57.31,35.67Zm0-3.58a.79.79,0,1,0,.79.79A.79.79,0,0,0,57.31,32.09Z"></path><path xmlns="http://www.w3.org/2000/svg" d="M63.58,64.5a8.73,8.73,0,0,1-8.08-5.25,1,1,0,0,1-.09-.41V53.9A1,1,0,0,1,56.78,53a18.6,18.6,0,0,0,13.59,0,1,1,0,0,1,1.37.93v4.94a1,1,0,0,1-.09.41A8.73,8.73,0,0,1,63.58,64.5Zm-6.16-5.87a6.84,6.84,0,0,0,12.32,0V55.31a20.55,20.55,0,0,1-12.32,0Z"></path><path xmlns="http://www.w3.org/2000/svg" d="M63.58,56.26A20.57,20.57,0,0,1,43.63,41a5.48,5.48,0,0,1-.75-10.86V28.41a1,1,0,0,1,2,0v2.69a1,1,0,0,1-1,1,3.48,3.48,0,1,0,0,7l.25,0,.16,0a1,1,0,0,1,1.09.77,18.68,18.68,0,0,0,36.41,0A1,1,0,0,1,82.87,39L83,39l.25,0a3.48,3.48,0,1,0,0-7,1,1,0,0,1,0-2A5.48,5.48,0,0,1,83.52,41,20.57,20.57,0,0,1,63.58,56.26Z"></path><path xmlns="http://www.w3.org/2000/svg" d="M37.94,101.92H20.84a1,1,0,0,1-1-1.23L25,78.86c1.61-8.31,3.77-11.32,9.6-13.38L56.08,57.9a1,1,0,1,1,.67,1.89L35.27,67.37C30.51,69,28.54,71.1,27,79.28L22.1,99.92H37.94a1,1,0,0,1,0,2Z"></path><path xmlns="http://www.w3.org/2000/svg" d="M107.16,101.92H89.66a1,1,0,0,1,0-2H105.9l-4.85-20.6C99.46,71.1,97.49,69,92.73,67.37L71.25,59.79a1,1,0,1,1,.67-1.89L93.4,65.48c5.83,2.06,8,5.07,9.61,13.42l5.13,21.79a1,1,0,0,1-1,1.23Z"></path><path xmlns="http://www.w3.org/2000/svg" d="M83.27,32.09h-.9a5.48,5.48,0,0,1-5.48-5.48v-14a1,1,0,0,1,1-1h.9a5.48,5.48,0,0,1,5.48,5.48v14A1,1,0,0,1,83.27,32.09ZM78.9,13.65v13a3.48,3.48,0,0,0,3.37,3.47v-13A3.48,3.48,0,0,0,78.9,13.65Z"></path><path xmlns="http://www.w3.org/2000/svg" d="M41.12,29.14a1,1,0,0,1-1-1V24.29c0-.53,0-1.07.07-1.6a18.82,18.82,0,0,1,4.35-10.55A18.88,18.88,0,0,1,59,5.38H72.52A5.48,5.48,0,0,1,76.08,15L74,16.84A45.82,45.82,0,0,1,52.43,27.09l-11.13,2ZM59,7.38A16.89,16.89,0,0,0,42.18,22.85q-.06.71-.06,1.43v2.65l9.95-1.82a43.81,43.81,0,0,0,20.58-9.8l2.12-1.82a3.48,3.48,0,0,0-2.26-6.12Z"></path><path xmlns="http://www.w3.org/2000/svg" d="M41.12,29.14a1,1,0,0,1-1-1V24.29c0-.53,0-1.07.07-1.6a1,1,0,0,1,1.08-.91,1,1,0,0,1,.91,1.08q-.06.71-.06,1.43v2.65l9.95-1.82a43.81,43.81,0,0,0,20.58-9.8l2.12-1.82a3.48,3.48,0,0,0-2.26-6.12H59A16.84,16.84,0,0,0,49.92,10a1,1,0,0,1-1.08-1.68A18.84,18.84,0,0,1,59,5.38H72.52A5.48,5.48,0,0,1,76.08,15L74,16.84A45.82,45.82,0,0,1,52.43,27.09l-11.13,2Z"></path><path xmlns="http://www.w3.org/2000/svg" d="M42.56,18.26a1,1,0,0,1-.92-1.39,18.9,18.9,0,0,1,2.91-4.73,1,1,0,1,1,1.53,1.29,16.88,16.88,0,0,0-2.6,4.23A1,1,0,0,1,42.56,18.26Z"></path><path xmlns="http://www.w3.org/2000/svg" d="M63.58,46.48A8.13,8.13,0,0,1,56,41.38a1,1,0,0,1,1.85-.75,6.15,6.15,0,0,0,11.41,0,1,1,0,0,1,1.85.75A8.13,8.13,0,0,1,63.58,46.48Z"></path><path xmlns="http://www.w3.org/2000/svg" d="M64,122.62a1,1,0,0,1-1-1V85.73a1,1,0,0,1,.3-.72c.37-.36,9.33-8.8,26.59-5.63a1,1,0,0,1,.82,1v33.06a1,1,0,0,1-.32.74,1,1,0,0,1-.76.26c-.12,0-12.53-1-25,8A1,1,0,0,1,64,122.62Zm1-36.44v33.54a43,43,0,0,1,23.72-7.34V81.2C74.71,78.9,66.66,84.83,65,86.18Z"></path><path xmlns="http://www.w3.org/2000/svg" d="M64,122.62a1,1,0,0,1-.58-.19c-12.52-9-24.93-8-25-8a1,1,0,0,1-1.09-1V80.36a1,1,0,0,1,.82-1C55.41,76.21,64.36,84.65,64.74,85a1,1,0,0,1,.3.72v35.89a1,1,0,0,1-1,1ZM39.78,112.37A43.34,43.34,0,0,1,63,119.72V86.18c-1.62-1.34-9.73-7.27-23.72-5v31.18Z"></path></g><g id="SvgjsG1023" featureKey="ewgXDI-0" transform="matrix(2.024288870339199,0,0,2.024288870339199,-2.0647741265076607,280.13766791479674)" fill="#ffffff"><path d="M7.4 9.44 c1.94 0 3.92 1.3 3.92 4.6 l0 5.96 l-3.16 0 l0 -5.74 c0 -1.58 -0.54 -2.08 -1.54 -2.08 c-1.42 0 -2.24 1.38 -2.44 1.98 l0 5.84 l-3.16 0 l0 -14.14 l3.16 0 l0 5.54 c0.2 -0.5 1.26 -1.96 3.22 -1.96 z M18.4 9.42 c2.36 0 5.48 1.78 5.48 5.42 c0 3.66 -3.12 5.36 -5.48 5.36 s-5.48 -1.7 -5.48 -5.36 c0 -3.64 3.12 -5.42 5.48 -5.42 z M18.4 12.2 c-1.2 0 -2.42 0.92 -2.42 2.64 c0 1.66 1.22 2.58 2.42 2.58 s2.44 -0.92 2.44 -2.58 c0 -1.72 -1.24 -2.64 -2.44 -2.64 z M39.5 9.44 c2.22 0 4.18 1.44 4.18 4.96 l0 5.6 l-3.16 0 l0 -5.5 c0 -1.32 -0.56 -2.32 -2.02 -2.32 c-1.22 0 -2.04 1.08 -2.28 2.04 l0 5.78 l-3.16 0 l0 -5.5 c0 -1.32 -0.82 -2.32 -2.02 -2.32 c-1.3 0 -2.08 0.88 -2.28 2.04 l0 5.78 l-3.16 0 l0 -10.4 l3.16 0 l0 1.9 c0.04 -0.48 1.06 -2.06 3.1 -2.06 c1.5 0 2.94 0.8 3.8 2.26 c0.24 -0.56 1.44 -2.26 3.84 -2.26 z M50.76 9.42 c2.36 0 5.66 1.78 5 6.48 l-7.26 0 c0.36 1.08 1.3 1.64 2.56 1.64 c1.28 0 1.68 -0.28 2.4 -0.58 l1.74 1.68 c-0.92 0.9 -2.16 1.56 -4.26 1.56 c-2.58 0 -5.66 -1.78 -5.66 -5.36 c0 -3.64 3.12 -5.42 5.48 -5.42 z M50.76 12.120000000000001 c-0.9 0 -1.82 0.52 -2.22 1.56 l4.42 0 c-0.32 -1.04 -1.3 -1.56 -2.2 -1.56 z M71.98 9.56 l3.14 0 l-3.72 10.44 l-3.04 0 l-2.28 -6.5 l-2.28 6.5 l-3.04 0 l-3.72 -10.44 l3.14 0 l2.14 6.68 l2.38 -6.68 l2.76 0 l2.38 6.68 z M81.80000000000001 9.42 c2.36 0 5.48 1.78 5.48 5.42 c0 3.66 -3.12 5.36 -5.48 5.36 s-5.48 -1.7 -5.48 -5.36 c0 -3.64 3.12 -5.42 5.48 -5.42 z M81.80000000000001 12.2 c-1.2 0 -2.42 0.92 -2.42 2.64 c0 1.66 1.22 2.58 2.42 2.58 s2.44 -0.92 2.44 -2.58 c0 -1.72 -1.24 -2.64 -2.44 -2.64 z M95.68 9.44 c0.28 0 0.56 0 0.82 0.06 l0 3.02 c-0.24 -0.06 -0.52 -0.06 -0.72 -0.06 c-1.92 0 -3.46 1.38 -3.62 3.3 l0 4.24 l-3.16 0 l0 -10.4 l3.16 0 l0 2.54 c0.48 -1.56 1.68 -2.7 3.52 -2.7 z M105.32000000000001 20 l-3.38 -4.04 l-0.66 0.7 l0 3.34 l-3.16 0 l0 -3.78 l0 -10.36 l3.16 0 l0 6.94 l2.94 -3.2 l3.78 0 l-4.12 4.34 l5.04 6.06 l-3.6 0 z M116.72000000000001 9.44 c1.94 0 3.92 1.3 3.92 4.6 l0 5.96 l-3.16 0 l0 -5.74 c0 -1.58 -0.54 -2.08 -1.54 -2.08 c-1.42 0 -2.24 1.38 -2.44 1.98 l0 5.84 l-3.16 0 l0 -14.14 l3.16 0 l0 5.54 c0.2 -0.5 1.26 -1.96 3.22 -1.96 z M127.72 9.42 c2.36 0 5.66 1.78 5 6.48 l-7.26 0 c0.36 1.08 1.3 1.64 2.56 1.64 c1.28 0 1.68 -0.28 2.4 -0.58 l1.74 1.68 c-0.92 0.9 -2.16 1.56 -4.26 1.56 c-2.58 0 -5.66 -1.78 -5.66 -5.36 c0 -3.64 3.12 -5.42 5.48 -5.42 z M127.72 12.120000000000001 c-0.9 0 -1.82 0.52 -2.22 1.56 l4.42 0 c-0.32 -1.04 -1.3 -1.56 -2.2 -1.56 z M137.68 5.859999999999999 l0 14.14 l-3.16 0 l0 -14.14 l3.16 0 z M145.56 9.42 c2.38 0 5.12 1.78 5.12 5.36 c0 3.72 -2.74 5.42 -5.12 5.42 c-1.6 0 -2.54 -0.88 -2.68 -1.24 l0 4.84 l-3.16 0 l0 -6.02 l0 -8.18 l3.16 0 l0 0.96 c0.14 -0.22 1.08 -1.14 2.68 -1.14 z M145.1 17.42 c1.36 0 2.52 -0.92 2.52 -2.64 c0 -1.66 -1.16 -2.58 -2.52 -2.58 c-1.3 0 -2.36 0.9 -2.36 2.58 c0 1.74 1.06 2.64 2.36 2.64 z"></path></g>
			</g>
		</svg>
	